# xmcd
#
# Track frame offsets:
# 150
# 18980
# 36647
# 54435
# 70102
# 85922
# 100857
# 115667
# 132680
# 147737
#
# Disc length: 2204 seconds
#
#
# Revision: 4
# Processed by: cddbd v1.5.1PL2 Copyright (c) Steve Scherf et al.
# Submitted via: FreeRIP 2.942 
#
DISCID=91089a0a
DTITLE=Coleske - Coleske
DYEAR=1900
DGENRE=
TTITLE0=Coleske - Share My Life
TTITLE1=Coleske - Vanishing Point
TTITLE2=Coleske - My Only
TTITLE3=Coleske - Take Me Where The Sun Is Shining
TTITLE4=Coleske - Life To Going On (Without You)
TTITLE5=Coleske - Wish I Was Young (Without You)
TTITLE6=Coleske - Click Song
TTITLE7=Coleske - Smiling Heart
TTITLE8=Coleske - Kevin
TTITLE9=Coleske - Take Me Where The Sun Is Shining (Remix)
EXTD=
EXTT0=
EXTT1=
EXTT2=
EXTT3=
EXTT4=
EXTT5=
EXTT6=
EXTT7=
EXTT8=
EXTT9=
PLAYORDER=
